<svg id="Layer_1" data-name="Layer 1" xmlns="http://www.w3.org/2000/svg" xmlns:xlink="http://www.w3.org/1999/xlink" viewBox="0 0 100 100"><defs><style>.cls-1{fill:url(#radial-gradient);}.cls-2{fill:#b01f24;}.cls-3{fill:#282827;}</style><radialGradient id="radial-gradient" cx="50.07" cy="64.4" r="61.27" gradientUnits="userSpaceOnUse"><stop offset="0" stop-color="#fdfadb"/><stop offset="0.16" stop-color="#fcefab"/><stop offset="0.44" stop-color="#fbdc5c"/><stop offset="0.64" stop-color="#fad02b"/><stop offset="0.73" stop-color="#facc18"/></radialGradient></defs><path class="cls-1" d="M99,54.29l-.14,0a11.77,11.77,0,0,0-1.33-.34,7.23,7.23,0,0,0-1.5-.16,2.48,2.48,0,0,0-2,.95h-.48l-.14-.16a5.08,5.08,0,0,0-1.49-1,10.83,10.83,0,0,0-1.21-.46,8.5,8.5,0,0,0-1.32-.29,8.35,8.35,0,0,0-1-.07,2.49,2.49,0,0,0-1.49.49,12.51,12.51,0,0,0-2.71,2.87l-.57.84a.3.3,0,0,1-.5,0,8.76,8.76,0,0,0-.76-.87A4.61,4.61,0,0,0,79,54.68a6.35,6.35,0,0,0-3.16.93,16.46,16.46,0,0,0-1.62,1,.31.31,0,0,1-.47-.12,8.7,8.7,0,0,0-1.31-2.07,6.38,6.38,0,0,0-3-2.07,2.65,2.65,0,0,0-.74-.11,2.46,2.46,0,0,0-1.12.27c-.72.36-1.22.95-2.42,2.86-.27.42-.55.89-.82,1.4a.3.3,0,0,1-.51,0,7.85,7.85,0,0,0-.73-.81,4.6,4.6,0,0,0-3.34-1.37,6.29,6.29,0,0,0-3.15.93,14.39,14.39,0,0,0-1.62,1,.31.31,0,0,1-.47-.12,9.39,9.39,0,0,0-1.31-2.07,6.36,6.36,0,0,0-3-2.07,2.64,2.64,0,0,0-.73-.11,2.43,2.43,0,0,0-1.12.27c-.73.36-1.23.95-2.43,2.86l-.21.34a.32.32,0,0,1-.51,0h0a4.45,4.45,0,0,0-1.26-1,7,7,0,0,0-1.27-.54,10.78,10.78,0,0,0-1.33-.35,7.3,7.3,0,0,0-1.5-.16,2.51,2.51,0,0,0-1.72.68c-.15.14-.3.29-.44.44l-.17-.21a4.91,4.91,0,0,0-1.5-1.12,9.5,9.5,0,0,0-1.19-.47,8.42,8.42,0,0,0-1.33-.3,8.56,8.56,0,0,0-1.07-.07,2.45,2.45,0,0,0-1.46.47,12.22,12.22,0,0,0-2.78,2.89,26.56,26.56,0,0,0-2.06,3.48q-.39.8-.75,1.62a.31.31,0,0,1-.54,0,8.78,8.78,0,0,0-1.09-1.36A12,12,0,0,0,21,57.76c-.94-.52-2.06-1.08-3.35-1.69-1-.44-1.94-.92-3-1.42s-1.83-.95-2.61-1.43c-.27-.17-.53-.34-.77-.51a.3.3,0,0,1,.1-.55l.48-.1a11.47,11.47,0,0,1,1.92-.16,13.11,13.11,0,0,1,2.21.19,11.79,11.79,0,0,1,2.14.55,8.43,8.43,0,0,1,1.75.88,4.36,4.36,0,0,1,1.16,1.1,2.52,2.52,0,0,0,2,1,2.48,2.48,0,0,0,1.09-.25,5.59,5.59,0,0,0,2.57-2.58,7.36,7.36,0,0,0,.8-3.36,5.35,5.35,0,0,0-.12-1.2s-.05-.21-.14-.72a2.48,2.48,0,0,0-1.45-1.85A35.57,35.57,0,0,0,21,43.88a19.76,19.76,0,0,0-5.36-.75,19.27,19.27,0,0,0-3,.25,13.19,13.19,0,0,0-3,.89,10.16,10.16,0,0,0-4.65,3.65,9.21,9.21,0,0,0-1.66,5.24A7.75,7.75,0,0,0,4,56.57a8.58,8.58,0,0,0,2.17,2.74,17.44,17.44,0,0,0,3.17,2.12c1.14.62,2.52,1.29,4.09,2l0,0c1,.42,2,.85,2.87,1.27a24.18,24.18,0,0,1,2.25,1.17,5.46,5.46,0,0,1,1,.73s0,0,0,0a1.86,1.86,0,0,1-.44.57,3.56,3.56,0,0,1-1.18.68,6.42,6.42,0,0,1-2.36.33,14,14,0,0,1-3.36-.45,13.07,13.07,0,0,1-3.44-1.41A7.93,7.93,0,0,1,6.38,64.3a3.59,3.59,0,0,1-.72-1.36,2.48,2.48,0,0,0-1.72-2.13,2.49,2.49,0,0,0-2.64.73c-.13.14-.26.29-.38.44a49.54,49.54,0,0,1,98-7.69Z"/><path class="cls-2" d="M24.86,48c.07.41.13.7.16.85a2.72,2.72,0,0,1,.06.64,4.84,4.84,0,0,1-.53,2.22,3.14,3.14,0,0,1-1.43,1.47,7.09,7.09,0,0,0-1.77-1.68,10.13,10.13,0,0,0-2.3-1.16,14.07,14.07,0,0,0-2.59-.67,15.68,15.68,0,0,0-2.61-.22,13.68,13.68,0,0,0-2.37.2,9.82,9.82,0,0,0-2,.54A4,4,0,0,0,8.19,51a1.62,1.62,0,0,0-.49,1.16,2.8,2.8,0,0,0,1,1.61,13.11,13.11,0,0,0,2.13,1.59c.85.52,1.78,1,2.81,1.54s2,1,3,1.45c1.23.58,2.29,1.12,3.19,1.61A9.82,9.82,0,0,1,22,61.58a6,6,0,0,1,1.3,2,7.52,7.52,0,0,1,.43,2.71,9.57,9.57,0,0,1-.61,3.46,8.09,8.09,0,0,1-1.79,2.81,8.48,8.48,0,0,1-2.85,1.86,9.82,9.82,0,0,1-3.72.67,17.26,17.26,0,0,1-4.38-.61A20.9,20.9,0,0,1,6,72.8a13.23,13.23,0,0,1-3.41-2.46,4.21,4.21,0,0,1-1.35-3,5.78,5.78,0,0,1,.41-1.85,7.77,7.77,0,0,1,1.51-2.35,5.59,5.59,0,0,0,1.17,2.57,10.27,10.27,0,0,0,3.21,2.75,15.26,15.26,0,0,0,4.1,1.69,16.61,16.61,0,0,0,4,.52,8.91,8.91,0,0,0,3.29-.51,5.82,5.82,0,0,0,2-1.21,4.28,4.28,0,0,0,1-1.43,4.19,4.19,0,0,0,.32-1.16A2.19,2.19,0,0,0,21.58,65a7.63,7.63,0,0,0-1.7-1.3,26.72,26.72,0,0,0-2.48-1.29c-.94-.43-1.92-.87-2.93-1.3-1.52-.68-2.83-1.31-3.93-1.9a15.14,15.14,0,0,1-2.71-1.81,6.23,6.23,0,0,1-1.56-1.94,5.21,5.21,0,0,1-.49-2.32A6.68,6.68,0,0,1,7,49.33a7.57,7.57,0,0,1,3.55-2.75A10.48,10.48,0,0,1,13,45.85a16.44,16.44,0,0,1,2.59-.21,16.72,16.72,0,0,1,4.67.65A34.84,34.84,0,0,1,24.86,48Z"/><path class="cls-2" d="M36,71.55a2.83,2.83,0,0,1-.93-1.44,6.16,6.16,0,0,1-.23-1.49,4.12,4.12,0,0,1,.18-1.3c-.1,0-.31.19-.65.58s-.71.84-1.11,1.37-.79,1-1.17,1.55l-.87,1.12a5.55,5.55,0,0,1-.89.79,1.84,1.84,0,0,1-.67.33,4.14,4.14,0,0,1-1.21-.2,5.21,5.21,0,0,1-1.19-.57,4.08,4.08,0,0,1-1-.87,2.65,2.65,0,0,1-.56-1.17c0-.67,0-1.23.05-1.66A10.28,10.28,0,0,1,26,67.17a25.77,25.77,0,0,1,1-3.11,34.1,34.1,0,0,1,1.46-3.42,24.44,24.44,0,0,1,1.87-3.15,9.33,9.33,0,0,1,2.19-2.3,5.74,5.74,0,0,1,.76.06,4.12,4.12,0,0,1,.88.2,6,6,0,0,1,.87.34,2.21,2.21,0,0,1,.71.52,28.82,28.82,0,0,0-1.65,2.43,40.68,40.68,0,0,0-2.95,5.94c-.12.26-.26.65-.43,1.15s-.34,1-.51,1.6-.31,1.1-.42,1.63a7.4,7.4,0,0,0-.16,1.26.85.85,0,0,0,.09.44,1.58,1.58,0,0,0,.16.21,4.11,4.11,0,0,0,1.38-1.19c.55-.65,1.33-1.65,2.32-3,.24-.34.52-.73.85-1.16s.65-.9,1-1.4.66-1,1-1.54a10.29,10.29,0,0,0,.74-1.59c.1-.29.23-.63.38-1a13.56,13.56,0,0,1,.58-1.25c.23-.43.5-.87.8-1.32a7.38,7.38,0,0,1,1.07-1.25,5.36,5.36,0,0,1,1,.11,7.74,7.74,0,0,1,1,.27,5.3,5.3,0,0,1,.85.36,2.18,2.18,0,0,1,.55.42c-.44,1.06-.92,2.11-1.45,3.15s-1,2.06-1.49,3.06a27.57,27.57,0,0,0-1.15,3,9.4,9.4,0,0,0-.47,2.9,6.32,6.32,0,0,0,.12,1.32,8.81,8.81,0,0,0,.27.94c.1.26.19.47.27.64a.91.91,0,0,1,.13.43.2.2,0,0,1-.07.11.13.13,0,0,1-.07,0,2.66,2.66,0,0,1-.65-.11c-.27-.08-.57-.18-.89-.31a10.67,10.67,0,0,1-1-.45A9.32,9.32,0,0,1,36,71.55Z"/><path class="cls-2" d="M49.55,54.79a4,4,0,0,1,1.77,1.29,6.78,6.78,0,0,1,1.23,2.19,18.9,18.9,0,0,1-1.23,2.35c-.56.92-1.11,1.85-1.67,2.81s-1,1.86-1.5,2.71a7.17,7.17,0,0,0-.78,2.12c.39-.41.82-.89,1.29-1.43s.93-1.09,1.37-1.63l1.25-1.48c.39-.45.69-.78.91-1L53.82,61a24.14,24.14,0,0,1,2-1.81,14.78,14.78,0,0,1,2.08-1.45,3.93,3.93,0,0,1,1.92-.6,2.13,2.13,0,0,1,1.58.64,5.43,5.43,0,0,1,1,1.32s-.09.11-.27.2a3,3,0,0,0-.78.7,14.22,14.22,0,0,0-1.14,1.79c-.42.76-.83,1.58-1.23,2.47a20.77,20.77,0,0,0-1,2.69,9.26,9.26,0,0,0-.39,2.5,1.87,1.87,0,0,0,.23,1.16.87.87,0,0,0,.67.25,2.14,2.14,0,0,0,.83-.18,2,2,0,0,1,.69-.18.53.53,0,0,1,.24.31,1.13,1.13,0,0,1,.09.41,6.88,6.88,0,0,1-.69.51,8.44,8.44,0,0,1-.83.47,6,6,0,0,1-.85.36,2.26,2.26,0,0,1-.75.15,4.07,4.07,0,0,1-1.72-.31,2.79,2.79,0,0,1-1.05-.81,3.13,3.13,0,0,1-.52-1.22,7.58,7.58,0,0,1-.07-2.48,8.3,8.3,0,0,1,.29-1.28c.14-.5.35-1.09.61-1.77s.61-1.52,1-2.48a6.17,6.17,0,0,0-1,.5,9.5,9.5,0,0,0-2,1.56,42.78,42.78,0,0,0-3,3.22Q48.39,69.27,47,71.23c-.54.75-1,1.38-1.4,1.9a4.08,4.08,0,0,1-1,1A2.62,2.62,0,0,1,43.43,73a7.82,7.82,0,0,1-.54-1.61,9.8,9.8,0,0,1,.19-1.74c.14-.7.32-1.48.55-2.34s.51-1.75.85-2.69.71-1.89,1.12-2.83a38.46,38.46,0,0,1,2.52-5A8.37,8.37,0,0,1,49.55,54.79Z"/><path class="cls-2" d="M68.73,54.79a3.88,3.88,0,0,1,1.77,1.29,6.63,6.63,0,0,1,1.24,2.19,17.86,17.86,0,0,1-1.24,2.35c-.55.92-1.11,1.85-1.66,2.81s-1.06,1.86-1.5,2.71a6.65,6.65,0,0,0-.78,2.12c.39-.41.81-.89,1.28-1.43s.93-1.09,1.38-1.63.86-1,1.25-1.48.69-.78.9-1L73,61a26,26,0,0,1,2-1.81,14.22,14.22,0,0,1,2.08-1.45,3.93,3.93,0,0,1,1.92-.6,2.11,2.11,0,0,1,1.57.64,5.75,5.75,0,0,1,1,1.32s-.09.11-.28.2a2.85,2.85,0,0,0-.77.7,14.22,14.22,0,0,0-1.14,1.79c-.43.76-.84,1.58-1.24,2.47a20.72,20.72,0,0,0-1,2.69,8.92,8.92,0,0,0-.4,2.5A1.85,1.85,0,0,0,77,70.65a.85.85,0,0,0,.67.25,2.18,2.18,0,0,0,.83-.18,2,2,0,0,1,.69-.18.56.56,0,0,1,.23.31,1.13,1.13,0,0,1,.09.41,5.15,5.15,0,0,1-.69.51,7.42,7.42,0,0,1-.83.47,5.54,5.54,0,0,1-.85.36,2.21,2.21,0,0,1-.74.15,4.07,4.07,0,0,1-1.72-.31,2.64,2.64,0,0,1-1.05-.81,3,3,0,0,1-.52-1.22A7.29,7.29,0,0,1,73,67.93a9.67,9.67,0,0,1,.29-1.28c.15-.5.35-1.09.62-1.77s.6-1.52,1-2.48a6.7,6.7,0,0,0-1,.5,9.47,9.47,0,0,0-2,1.56,43,43,0,0,0-3.06,3.22c-.9,1.06-1.83,2.24-2.77,3.55-.53.75-1,1.38-1.39,1.9a4.08,4.08,0,0,1-1,1A2.64,2.64,0,0,1,62.61,73a7.82,7.82,0,0,1-.54-1.61,10,10,0,0,1,.2-1.74q.19-1,.54-2.34c.23-.85.52-1.75.85-2.69s.71-1.89,1.13-2.83a37.35,37.35,0,0,1,2.51-5A8.71,8.71,0,0,1,68.73,54.79Z"/><path class="cls-2" d="M95.66,66.74c-.55,1.76-1.11,3.37-1.66,4.81a40.57,40.57,0,0,1-1.78,4,28.07,28.07,0,0,1-2,3.37,25.67,25.67,0,0,1-2.39,2.91,13.25,13.25,0,0,1-3.44,2.66,7.59,7.59,0,0,1-3.55.93,8.32,8.32,0,0,1-1.79-.2,9.6,9.6,0,0,1-1.67-.54,7.25,7.25,0,0,1-1.37-.8,2.78,2.78,0,0,1-.85-1,.92.92,0,0,1,.51-.76,9.23,9.23,0,0,0,.72.62,5.23,5.23,0,0,0,.56.36,1.87,1.87,0,0,0,.58.18c.2,0,.44,0,.71,0a7.58,7.58,0,0,0,4-1.21A14.34,14.34,0,0,0,86,78.7a26.1,26.1,0,0,0,3.2-5.39,42.76,42.76,0,0,0,2.47-7.08c-.32.48-.71,1.07-1.16,1.77s-1,1.39-1.52,2.08a20.68,20.68,0,0,1-1.72,1.86,5.19,5.19,0,0,1-1.72,1.12,4.2,4.2,0,0,1-1.22-.2,5.21,5.21,0,0,1-1.19-.57,4.6,4.6,0,0,1-1-.87,2.67,2.67,0,0,1-.57-1.17,15.07,15.07,0,0,1,.07-1.68,12.67,12.67,0,0,1,.25-1.4,30,30,0,0,1,1-3.11,32.09,32.09,0,0,1,1.48-3.42,25.74,25.74,0,0,1,1.89-3.15,9.8,9.8,0,0,1,2.15-2.3,5.33,5.33,0,0,1,.72.06,4.52,4.52,0,0,1,.91.2,6.43,6.43,0,0,1,.9.34,2.75,2.75,0,0,1,.77.52,17.4,17.4,0,0,0-1.74,2.43,38.52,38.52,0,0,0-3,5.94c-.12.26-.27.65-.44,1.15s-.33,1-.48,1.6-.3,1.1-.42,1.63a6.06,6.06,0,0,0-.18,1.26.85.85,0,0,0,.09.44,1,1,0,0,0,.16.21,4,4,0,0,0,1.74-1.06,16.61,16.61,0,0,0,2.46-3c.58-.87,1.11-1.73,1.59-2.59s1-1.72,1.43-2.59,1-1.76,1.47-2.67,1-1.86,1.63-2.83a5.36,5.36,0,0,1,1,.11,9,9,0,0,1,1,.27,5.86,5.86,0,0,1,.89.36,2.08,2.08,0,0,1,.56.42q-1.12,2.39-2.1,4.67T95.66,66.74Z"/><polygon class="cls-3" points="4.12 78.32 3.39 78.32 3.39 78.59 4.12 78.69 4.12 81.81 1.58 78.32 0.54 78.32 0.54 78.59 1.03 78.66 1.09 78.74 1.09 82.61 0.5 82.7 0.5 82.98 1.09 82.98 1.44 82.98 2.17 82.98 2.17 82.7 1.44 82.6 1.44 79.21 4.24 83.03 4.46 83.03 4.46 82.29 4.46 78.68 5.06 78.59 5.06 78.32 4.46 78.32 4.12 78.32"/><path class="cls-3" d="M8.42,78.28H8L6.51,82.61l-.58.09V83h1.6V82.7l-.69-.1.39-1.15H8.86l.39,1.17-.7.08V83h1.88V82.7l-.53-.07ZM7.34,81.13l.71-2.08.7,2.08Z"/><path class="cls-3" d="M12.22,78.32h-.64v.28l.65.07c0,.6,0,1.2,0,1.8v.35c0,.61,0,1.21,0,1.8l-.65.08V83h1.95V82.7l-.65-.08c0-.6,0-1.2,0-1.8v-.35c0-.61,0-1.21,0-1.8l.65-.07v-.28H12.22Z"/><path class="cls-3" d="M17.89,82.63h-1.6c0-.59,0-1.18,0-1.67v-.49c0-.6,0-1.2,0-1.8l.65-.07v-.28H15v.28l.65.07c0,.59,0,1.19,0,1.8v.35c0,.6,0,1.2,0,1.8L15,82.7V83h3.46l.07-1.31H18.1Z"/><path class="cls-3" d="M21.52,80.35l-.27-.11c-.51-.19-.79-.45-.79-.89s.41-.79.95-.79a1.1,1.1,0,0,1,.57.14l.15.79h.41l.05-.91a1.87,1.87,0,0,0-1.14-.37c-.88,0-1.56.49-1.56,1.29s.49,1.11,1.2,1.39l.26.1c.61.24.88.44.88.89s-.44.85-1.1.85a1.32,1.32,0,0,1-.73-.18l-.14-.81h-.41l-.05,1a2.69,2.69,0,0,0,1.35.37c1,0,1.64-.5,1.64-1.32C22.79,81.11,22.44,80.7,21.52,80.35Z"/><path class="cls-3" d="M28.37,80.35l-.28-.11c-.5-.19-.79-.45-.79-.89s.41-.79.95-.79a1.13,1.13,0,0,1,.58.14l.14.79h.42l0-.91a1.86,1.86,0,0,0-1.13-.37c-.89,0-1.56.49-1.56,1.29s.49,1.11,1.19,1.39l.27.1c.6.24.88.44.88.89s-.44.85-1.1.85a1.36,1.36,0,0,1-.74-.18l-.13-.81h-.42l0,1a2.69,2.69,0,0,0,1.35.37c.95,0,1.64-.5,1.64-1.32C29.64,81.11,29.28,80.7,28.37,80.35Z"/><path class="cls-3" d="M33.14,78.28h-.42l-1.49,4.33-.58.09V83h1.6V82.7l-.69-.1L32,81.45h1.63L34,82.62l-.69.08V83h1.88V82.7l-.54-.07Zm-1.08,2.85.71-2.08.7,2.08Z"/><path class="cls-3" d="M39.21,82.63H37.6c0-.59,0-1.18,0-1.67v-.49c0-.6,0-1.2,0-1.8l.65-.07v-.28h-2v.28l.65.07c0,.59,0,1.19,0,1.8v.35c0,.6,0,1.2,0,1.8l-.65.08V83h3.46l.07-1.31h-.42Z"/><path class="cls-3" d="M43.3,78.21a2.25,2.25,0,0,0-2.13,2.44,2.21,2.21,0,0,0,2.13,2.43,2.24,2.24,0,0,0,2.12-2.43A2.21,2.21,0,0,0,43.3,78.21Zm0,4.52c-1,0-1.4-1-1.4-2.08s.42-2.09,1.4-2.09,1.39,1,1.39,2.09S44.28,82.73,43.3,82.73Z"/><polygon class="cls-3" points="50.35 78.32 49.62 78.32 49.62 78.59 50.35 78.69 50.35 81.81 47.81 78.32 46.77 78.32 46.77 78.59 47.26 78.66 47.32 78.74 47.32 82.61 46.73 82.7 46.73 82.98 47.32 82.98 47.67 82.98 48.4 82.98 48.4 82.7 47.67 82.6 47.67 79.21 50.47 83.03 50.7 83.03 50.7 82.29 50.7 78.68 51.29 78.59 51.29 78.32 50.7 78.32 50.35 78.32"/><path class="cls-3" d="M55.82,78.32h-.64v.28l.64.07c0,.6,0,1.2,0,1.8v.35c0,.61,0,1.21,0,1.8l-.64.08V83h1.94V82.7l-.64-.08c0-.6,0-1.2,0-1.8v-.35c0-.61,0-1.21,0-1.8l.65-.07v-.28h-1.3Z"/><polygon class="cls-3" points="62.17 78.32 61.44 78.32 61.44 78.59 62.17 78.69 62.17 81.81 59.63 78.32 58.58 78.32 58.58 78.59 59.08 78.66 59.14 78.74 59.14 82.61 58.55 82.7 58.55 82.98 59.14 82.98 59.49 82.98 60.22 82.98 60.22 82.7 59.49 82.6 59.49 79.21 62.29 83.03 62.51 83.03 62.51 82.29 62.51 78.68 63.1 78.59 63.1 78.32 62.51 78.32 62.17 78.32"/><path class="cls-3" d="M67.64,82.54a1.93,1.93,0,0,1-.85.19c-1,0-1.65-.73-1.65-2.08s.76-2.09,1.7-2.09a1.44,1.44,0,0,1,.73.2l.13.79h.43l0-1a2.71,2.71,0,0,0-1.34-.34,2.33,2.33,0,0,0-2.35,2.44,2.28,2.28,0,0,0,2.35,2.43,3,3,0,0,0,1.41-.33l0-1h-.43Z"/><path class="cls-3" d="M70.35,82.09a.48.48,0,0,0-.48.49.49.49,0,0,0,.48.49.5.5,0,0,0,.49-.49A.49.49,0,0,0,70.35,82.09Z"/></svg>